<svg xmlns="http://www.w3.org/2000/svg" viewBox="0 0 40 40">
    <defs>
        <style>
            .cls-1{fill:#768387}
        </style>
    </defs>
    <path id="email" d="M20 0a20 20 0 1 0 20 20A20 20 0 0 0 20 0zm11.865 27.506a1.252 1.252 0 0 1-1.251 1.251H9.378a1.257 1.257 0 0 1-1.251-1.251v-11.57l11.463 7.218a.967.967 0 0 0 .819 0l11.463-7.218v11.57zm0-13.472l-11.638 7.308a.65.65 0 0 1-.478 0L8.12 14.033v-1.554a1.252 1.252 0 0 1 1.251-1.251h21.236a1.252 1.252 0 0 1 1.251 1.251v1.554z" class="cls-1"/>
</svg>
