<svg xmlns="http://www.w3.org/2000/svg" viewBox="0 0 40 40">
    <defs>
        <style>
            .cls-1{fill:#768387}
        </style>
    </defs>
    <path id="g_" d="M20 0a20 20 0 1 0 20 20A19.992 19.992 0 0 0 20 0zm1.426 26.31a8.085 8.085 0 0 1-8.877 2.353 8.259 8.259 0 1 1 8.164-14.011 41.229 41.229 0 0 1-2.1 2.175 5.85 5.85 0 0 0-4.884-.963 5.214 5.214 0 1 0 3.529 9.8 4.484 4.484 0 0 0 2.674-3.137c-1.569-.036-3.137 0-4.742-.071v-2.813h7.879a9.41 9.41 0 0 1-1.643 6.667zm11.48-4.242h-2.353v2.353H28.2v-2.353h-2.353v-2.353H28.2c0-.784 0-1.569.036-2.353h2.353v2.353h2.353c-.036.785-.036 1.568-.036 2.353z" class="cls-1" data-name="g+"/>
</svg>
