<svg xmlns="http://www.w3.org/2000/svg" viewBox="15551 -106 24 24">
    <defs>
        <style>
            .cls-1{fill:#768387}
        </style>
    </defs>
    <path id="instagram" d="M12 8a4 4 0 1 0 4 4 4.012 4.012 0 0 0-4-4zm0 6a2 2 0 1 1 2-2 2.006 2.006 0 0 1-2 2zm5.5-6.5a1 1 0 0 1-2 0 1 1 0 0 1 2 0zM12 0a12 12 0 1 0 12 12A12.035 12.035 0 0 0 12 0zm7 16.6a2.433 2.433 0 0 1-2.4 2.4H7.4A2.433 2.433 0 0 1 5 16.6V7.4A2.433 2.433 0 0 1 7.4 5h9.2A2.433 2.433 0 0 1 19 7.4z" class="cls-1" transform="translate(15551 -106)"/>
</svg>
