<svg xmlns="http://www.w3.org/2000/svg" viewBox="0 0 40 40">
    <defs>
        <style>
            .cls-1{fill:#768387}
        </style>
    </defs>
    <path id="linkedin" d="M20 0a20 20 0 1 0 20 20A19.992 19.992 0 0 0 20 0zm-5.276 29.84H9.947V15.472h4.777zm-2.389-16.328a2.5 2.5 0 1 1 .036-4.991 2.485 2.485 0 0 1 2.674 2.5 2.516 2.516 0 0 1-2.71 2.491zM31.943 29.84h-4.777v-7.665c0-1.925-.677-3.244-2.424-3.244a2.643 2.643 0 0 0-2.46 1.747 3.051 3.051 0 0 0-.143 1.176v8.021h-4.777s.071-13.012 0-14.367h4.777v2.032a4.812 4.812 0 0 1 4.314-2.389c3.137 0 5.49 2.068 5.49 6.453z" class="cls-1"/>
</svg>
