<svg xmlns="http://www.w3.org/2000/svg" viewBox="0 0 40 40">
    <defs>
        <style>
            .cls-1{fill:#768387}
        </style>
    </defs>
    <path id="twitter" d="M20 0a20 20 0 1 0 20 20A20 20 0 0 0 20 0zm12.316 15.12c.375 8.421-5.9 17.8-17.018 17.8a16.947 16.947 0 0 1-9.178-2.691 12.043 12.043 0 0 0 8.86-2.479 6 6 0 0 1-5.596-4.15 6.079 6.079 0 0 0 2.705-.1 6 6 0 0 1-4.8-5.942 6.04 6.04 0 0 0 2.711.749 6 6 0 0 1-1.856-8 17 17 0 0 0 12.337 6.254 5.988 5.988 0 0 1 10.2-5.46 12 12 0 0 0 3.8-1.452 6.014 6.014 0 0 1-2.635 3.314 11.862 11.862 0 0 0 3.435-.942 11.744 11.744 0 0 1-2.965 3.099z" class="cls-1"/>
</svg>
