<svg xmlns="http://www.w3.org/2000/svg" viewBox="-1201 -102 32 32">
    <defs>
        <style>
            .cls-1{fill:#fff}
        </style>
    </defs>
    <path id="user" d="M265.645 30.83a6.972 6.972 0 0 0-7.134-6.786h-12.916a6.971 6.971 0 0 0-7.134 6.786 1.232 1.232 0 0 1-2.461 0 9.381 9.381 0 0 1 9.6-9.125h12.792a9.38 9.38 0 0 1 9.594 9.125c.124.7-.369 1.17-1.106 1.17a1.134 1.134 0 0 1-1.235-1.17zM242.274 9.36a9.853 9.853 0 0 1 19.681 0 9.853 9.853 0 0 1-19.681 0zm2.337-.117a7.389 7.389 0 0 0 14.76 0 7.043 7.043 0 0 0-7.258-7.019 7.259 7.259 0 0 0-7.502 7.019z" class="cls-1" transform="translate(-1437 -102)"/>
</svg>
