<svg xmlns="http://www.w3.org/2000/svg" viewBox="15591 -106 24 24">
    <defs>
        <style>
            .cls-1{fill:#768387}
        </style>
    </defs>
    <path id="youtube" d="M12 0a12 12 0 1 0 12 12A12.035 12.035 0 0 0 12 0zm8 15.2a2.291 2.291 0 0 1-2.1 2.3l-1.3.2a34.4 34.4 0 0 1-4.6.3 37.079 37.079 0 0 1-4.7-.3L6 17.5a2.208 2.208 0 0 1-2-2.3V8.8a2.291 2.291 0 0 1 2.1-2.3l1.3-.2a36.188 36.188 0 0 1 9.3 0l1.3.1a2.208 2.208 0 0 1 2 2.3zm-4.8-3.5c.2.1.2.3.1.5l-.1.1-4.7 3c-.1 0-.1.1-.2.1a.265.265 0 0 1-.3-.3V9a.265.265 0 0 1 .3-.3c.1 0 .1 0 .2.1z" class="cls-1" transform="translate(15591 -106)"/>
</svg>
